<?xml version="1.0" standalone="no"?>
<!DOCTYPE svg PUBLIC "-//W3C//DTD SVG 20010904//EN"
 "http://www.w3.org/TR/2001/REC-SVG-20010904/DTD/svg10.dtd">
<svg version="1.0" xmlns="http://www.w3.org/2000/svg"
 width="240.000000pt" height="240.000000pt" viewBox="0 0 240.000000 240.000000"
 preserveAspectRatio="xMidYMid meet">

<g transform="translate(0.000000,240.000000) scale(0.100000,-0.100000)"
fill="#000000" stroke="none">
<path d="M0 1200 l0 -1200 1200 0 1200 0 0 1200 0 1200 -1200 0 -1200 0 0
-1200z m787 178 l173 -173 0 47 c0 109 71 217 175 268 45 21 66 24 203 28
l152 4 0 -29 0 -29 -147 -3 c-169 -3 -192 -10 -257 -74 -52 -52 -76 -118 -76
-207 l0 -56 158 -157 157 -157 -40 0 c-39 0 -46 6 -357 318 -287 288 -316 320
-320 355 -2 20 -2 37 1 37 3 0 83 -78 178 -172z m1005 133 c-3 -33 -16 -50
-87 -121 l-82 -82 -17 23 c-16 23 -15 25 81 121 54 54 100 98 103 98 3 0 4
-17 2 -39z m-294 -128 c24 -35 192 -329 192 -337 0 -3 -60 -6 -133 -6 l-133 0
-66 68 c-56 56 -67 72 -66 100 1 17 4 32 7 32 4 0 40 -34 81 -75 l74 -75 73 0
c40 0 73 3 73 8 -1 4 -34 63 -74 132 l-73 125 -94 3 c-52 2 -111 -2 -131 -8
-47 -14 -78 -61 -78 -121 0 -44 2 -46 153 -197 l154 -154 46 46 c38 39 52 46
83 46 l38 0 -64 -65 c-58 -59 -68 -65 -105 -65 -38 0 -46 6 -197 157 l-158
158 0 68 c0 72 13 108 52 144 38 36 66 42 200 42 l127 1 19 -27z m-385 -541
c-36 -3 -42 2 -274 235 -230 231 -237 239 -232 272 l6 34 268 -269 269 -269
-37 -3z m679 506 c5 -28 -2 -40 -51 -91 -50 -53 -56 -57 -68 -41 -7 10 -13 22
-13 27 0 7 119 137 125 137 2 0 5 -14 7 -32z m-822 -503 c0 -3 -15 -5 -33 -5
-28 0 -50 18 -179 148 -81 81 -147 154 -148 162 -9 67 -2 62 180 -119 99 -99
180 -183 180 -186z m799 269 l-23 -25 -13 25 c-12 23 -10 28 19 61 l33 35 3
-36 c3 -27 -3 -43 -19 -60z"/>
</g>
</svg>
